# xmcd
#
# Track frame offsets:
#	150
#	27480
#	38217
#	66457
#	75150
#	88522
#	106927
#	119172
#	132052
#
# Disc length: 2161 seconds
#
# Revision: 1
# Processed by: cddbd v1.5.2PL0 Copyright (c) Steve Scherf et al.
# Submitted via: audiograbber 1.83.01
#
DISCID=72086f09
DTITLE=Gene Chandler - Live At The Regal 
DYEAR=1965
DGENRE=Soul
TTITLE0=Rainbow '65, Parts 1 and 2
TTITLE1=If You Can't Be True
TTITLE2=Soul Hootenanny
TTITLE3=Monkey Time
TTITLE4=What Now
TTITLE5=Just Be True
TTITLE6=Ain't No Use
TTITLE7=Bless Our Love
TTITLE8=A Song Called Soul
EXTD=
EXTT0=
EXTT1=
EXTT2=
EXTT3=
EXTT4=
EXTT5=
EXTT6=
EXTT7=
EXTT8=
PLAYORDER=
